<svg width="116" height="34" viewBox="0 0 116 34" fill="none" xmlns="http://www.w3.org/2000/svg">
<g clip-path="url(#clip0_19957_100608)">
<path d="M20.2535 5.29291H12.3138C12.0485 5.29291 11.8359 5.51339 11.8301 5.78745C11.6697 13.4909 7.7687 20.8025 1.05428 25.9813C0.841105 26.1456 0.792539 26.4545 0.948388 26.677L5.59379 33.3131C5.75183 33.539 6.05974 33.5899 6.2765 33.424C10.4749 30.207 13.8518 26.3262 16.2836 22.0248C18.7155 26.3262 22.0926 30.207 26.291 33.424C26.5075 33.5899 26.8155 33.539 26.9737 33.3131L31.6191 26.677C31.7748 26.4545 31.7262 26.1456 31.5132 25.9813C24.7986 20.8025 20.8976 13.4909 20.7374 5.78745C20.7316 5.51339 20.5188 5.29291 20.2535 5.29291Z" fill="white"/>
<path d="M30.5238 10.3123L29.688 7.65425C29.518 7.11462 29.1038 6.69427 28.5767 6.52808L25.9818 5.70692C25.6237 5.5935 25.6199 5.07246 25.977 4.95417L28.5587 4.09389C29.083 3.91891 29.4923 3.49171 29.6538 2.95012L30.4507 0.279358C30.5609 -0.0901686 31.0672 -0.0940867 31.183 0.273505L32.0189 2.93153C32.1889 3.47117 32.603 3.89153 33.1301 4.0587L35.7251 4.87889C36.0832 4.9923 36.087 5.51335 35.7299 5.63261L33.1482 6.49289C32.6239 6.66689 32.2145 7.09409 32.0531 7.63667L31.2561 10.3064C31.146 10.676 30.6397 10.6799 30.5238 10.3123Z" fill="white"/>
<path d="M97.2431 14.0878H95.0825V11.4433C95.0825 11.3032 95.021 11.1739 94.9137 11.0885C94.8096 11.0055 94.6761 10.976 94.5491 11.0084L92.6482 11.4836C92.4536 11.5324 92.3177 11.7112 92.3177 11.9187V14.0878H91.2345C90.9953 14.0878 90.8006 14.2894 90.8006 14.5373V16.1377C90.8006 16.3856 90.9953 16.5874 91.2347 16.5874H92.3177V23.0443C92.3423 25.789 94.0709 26.1672 95.935 26.1672C96.1193 26.1672 96.3037 26.1618 96.4908 26.1561C96.6798 26.1504 96.8714 26.1444 97.0689 26.1444L97.0908 26.143C97.345 26.1098 97.5027 25.9293 97.5027 25.6721V23.9571C97.5027 23.7092 97.308 23.5079 97.0689 23.5079H96.4148C95.4685 23.5079 95.0825 23.0816 95.0825 22.0367V16.5874H97.2431C97.4825 16.5874 97.6769 16.3856 97.6769 16.1377V14.5373C97.6769 14.2894 97.4825 14.0878 97.2431 14.0878Z" fill="white"/>
<path d="M85.6203 13.9049C84.4889 13.9049 83.6023 14.2591 82.9801 14.9582V14.5372C82.9801 14.281 82.7936 14.0878 82.5461 14.0878H80.5404C80.2927 14.0878 80.1062 14.281 80.1062 14.5372V25.672C80.1062 25.9283 80.2927 26.1217 80.5404 26.1217H82.5461C82.7936 26.1217 82.9801 25.9283 82.9801 25.672V18.6985C82.9801 17.4084 83.7519 16.5415 84.9009 16.5415C86.0541 16.5415 86.7997 17.3971 86.7997 18.7212V25.672C86.7997 25.9283 86.9861 26.1217 87.2336 26.1217H89.2395C89.4869 26.1217 89.6735 25.9283 89.6735 25.672V18.1726C89.6735 15.5801 88.0826 13.9049 85.6203 13.9049Z" fill="white"/>
<path d="M75.5062 18.912H71.237C71.262 18.5296 71.3104 18.2624 71.3966 18.0283L71.4006 18.0162C71.6785 17.0514 72.3451 16.5415 73.328 16.5415C74.3867 16.5415 75.1363 17.1264 75.3878 18.158C75.4412 18.3251 75.483 18.5947 75.5062 18.912ZM73.328 13.905C70.9982 13.905 69.2329 15.243 68.6065 17.4803C68.4012 18.1481 68.3131 18.9816 68.3373 20.0245C68.3373 21.3068 68.5057 22.3389 68.8504 23.175C69.6133 25.1622 71.2798 26.2819 73.544 26.3272C73.5717 26.3276 73.5993 26.3278 73.6271 26.3278C75.5118 26.3278 77.1283 25.5361 78.0734 24.1436C78.2071 23.933 78.1724 23.7222 77.9748 23.5495L76.6237 22.3843C76.4981 22.2743 76.3811 22.2641 76.3046 22.2731C76.224 22.2838 76.1054 22.3292 75.9981 22.4866C75.4606 23.2857 74.7162 23.6906 73.7885 23.6906C72.5227 23.6699 71.7188 23.1494 71.3927 22.1262C71.2967 21.9046 71.2546 21.5826 71.2175 21.2288H77.9721C78.2309 21.2288 78.4049 21.0494 78.4062 20.7818C78.4289 20.0092 78.4257 19.4024 78.3396 18.77C77.9731 15.5417 76.2871 13.905 73.328 13.905Z" fill="white"/>
<path d="M63.7609 20.002C63.7609 21.2629 63.7139 21.5882 63.6137 21.9878C63.3854 22.9448 62.6946 23.4938 61.7181 23.4938C60.7528 23.4938 60.0026 22.9184 59.7069 21.9432C59.6134 21.6973 59.5016 21.1654 59.5016 20.0248C59.5016 19.1235 59.5803 18.5077 59.7533 18.0757C60.0726 17.0955 60.7809 16.5332 61.6963 16.5332C62.6658 16.5332 63.3743 17.1041 63.5939 18.0695C63.7125 18.4845 63.7609 18.7754 63.7609 20.002ZM66.1919 14.0877H64.1939C63.947 14.0877 63.7609 14.2805 63.7609 14.5361V14.8383C63.0976 14.2111 62.2348 13.9056 61.1316 13.9056C59.1797 13.9056 57.5857 15.1216 56.973 17.0746C56.6563 17.9941 56.6158 19.1343 56.6158 20.0248C56.6158 21.1936 56.7073 22.0837 56.9054 22.831C57.5961 25.1732 59.62 26.0075 61.2837 26.0075C62.3203 26.0075 63.153 25.7105 63.7605 25.1263C63.7492 26.105 63.4967 26.8095 62.9897 27.2784C62.3255 27.8923 61.2016 28.1131 59.5371 27.9546C59.1069 27.9546 59.0605 28.252 59.0605 28.3737L58.9954 30.2476C58.9954 30.5098 59.1408 30.6853 59.3889 30.7181C59.8011 30.7613 60.2021 30.7831 60.5891 30.7831C62.4508 30.7831 64.0011 30.2859 65.0313 29.3428C66.0887 28.3743 66.6247 26.9557 66.6247 25.1265V14.5361C66.6247 14.2805 66.4386 14.0877 66.1919 14.0877Z" fill="white"/>
<path d="M55.6415 14.1349C55.3368 14.011 55.001 13.9508 54.6148 13.9508C53.589 13.9508 52.7539 14.3744 52.127 15.211V14.5375C52.127 14.2896 51.9324 14.0878 51.693 14.0878H49.6871C49.4477 14.0878 49.2531 14.2894 49.2531 14.5373V25.672C49.2531 25.9199 49.4479 26.1217 49.6873 26.1217H51.693C51.9324 26.1217 52.127 25.9199 52.127 25.672V19.2016C52.127 17.8066 53.1185 17.1242 54.1154 17.0657C54.4615 17.0163 54.6573 17.0325 54.8781 17.0769C55.1246 17.1265 55.3573 16.9729 55.4124 16.7268L55.9444 14.7405C55.9985 14.4877 55.8682 14.2273 55.6415 14.1349Z" fill="white"/>
<path d="M44.3563 20.9087V21.9224C44.3563 23.1296 43.1249 23.8508 41.9341 23.8508C41.1323 23.8508 40.2751 23.4944 40.2751 22.494C40.2751 21.4865 41.1181 20.9087 42.5882 20.9087H44.3563ZM42.4575 13.905C40.2414 13.905 38.4725 14.9366 37.951 16.5334C37.9066 16.6692 37.9219 16.8167 37.9927 16.9383C38.0591 17.0522 38.1688 17.1315 38.2946 17.1567L40.2717 17.6606C40.4788 17.6993 40.6849 17.5865 40.7646 17.3923C40.9907 16.8437 41.6149 16.5416 42.5228 16.5416C43.7222 16.5416 44.3563 17.1293 44.3563 18.2414V18.7293H42.0868C39.1393 18.7293 37.3794 20.205 37.3794 22.6771C37.3794 25.3515 39.4059 26.3045 41.3021 26.3045C42.5739 26.3045 43.625 25.9202 44.3563 25.1934V25.6721C44.3563 25.92 44.5511 26.1216 44.7905 26.1216H46.796C47.0354 26.1216 47.2302 25.92 47.2302 25.6721V17.9671C47.2302 15.5753 45.2677 13.905 42.4575 13.905Z" fill="white"/>
<path d="M104.685 26.1222H107.167C107.285 26.1222 107.403 26.0707 107.462 25.985L110.042 22.0757C110.081 22.0071 110.121 22.0071 110.16 22.0757L112.72 25.985C112.779 26.0707 112.897 26.1222 113.015 26.1222H115.497C115.674 26.1222 115.772 26.0364 115.674 25.8821L111.854 20.1725C111.834 20.1383 111.834 20.104 111.854 20.0697L115.674 14.3601C115.772 14.2058 115.674 14.1201 115.497 14.1201H113.015C112.897 14.1201 112.779 14.1715 112.72 14.2572L110.16 18.1836C110.121 18.2522 110.081 18.2522 110.042 18.1836L107.482 14.2572C107.423 14.1715 107.304 14.1201 107.186 14.1201H104.685C104.508 14.1201 104.41 14.2058 104.508 14.3601L108.328 20.0697C108.348 20.104 108.348 20.1383 108.328 20.1725L104.508 25.8821C104.41 26.0364 104.508 26.1222 104.685 26.1222Z" fill="white"/>
</g>
<defs>
<clipPath id="clip0_19957_100608">
<rect width="116" height="34" fill="white"/>
</clipPath>
</defs>
</svg>
