<svg width="64" height="64" viewBox="0 0 64 64" fill="none" xmlns="http://www.w3.org/2000/svg">
<path d="M52 14H45.07L41.6625 8.89C41.4799 8.61638 41.2327 8.39201 40.9427 8.23676C40.6527 8.08152 40.3289 8.0002 40 8H24C23.6711 8.0002 23.3473 8.08152 23.0573 8.23676C22.7673 8.39201 22.5201 8.61638 22.3375 8.89L18.9275 14H12C10.4087 14 8.88258 14.6321 7.75736 15.7574C6.63214 16.8826 6 18.4087 6 20V48C6 49.5913 6.63214 51.1174 7.75736 52.2426C8.88258 53.3679 10.4087 54 12 54H52C53.5913 54 55.1174 53.3679 56.2426 52.2426C57.3679 51.1174 58 49.5913 58 48V20C58 18.4087 57.3679 16.8826 56.2426 15.7574C55.1174 14.6321 53.5913 14 52 14ZM41 33C41 34.78 40.4722 36.5201 39.4832 38.0001C38.4943 39.4802 37.0887 40.6337 35.4441 41.3149C33.7996 41.9961 31.99 42.1743 30.2442 41.8271C28.4984 41.4798 26.8947 40.6226 25.636 39.364C24.3774 38.1053 23.5202 36.5016 23.1729 34.7558C22.8257 33.01 23.0039 31.2004 23.6851 29.5558C24.3663 27.9113 25.5198 26.5057 26.9999 25.5168C28.4799 24.5278 30.22 24 32 24C34.3869 24 36.6761 24.9482 38.364 26.636C40.0518 28.3239 41 30.6131 41 33Z" fill="#666666"/>
</svg>
