<svg width="20" height="20" viewBox="0 0 20 20" fill="none" xmlns="http://www.w3.org/2000/svg">
<path d="M6.25 1.875C5.73223 1.875 5.3125 2.29473 5.3125 2.8125C5.3125 3.33027 5.73223 3.75 6.25 3.75H16.25V13.75C16.25 14.2678 16.6697 14.6875 17.1875 14.6875C17.7053 14.6875 18.125 14.2678 18.125 13.75V2.8125C18.125 2.29473 17.7053 1.875 17.1875 1.875H6.25Z" fill="white" fill-opacity="0.5"/>
<path fill-rule="evenodd" clip-rule="evenodd" d="M3.125 5C2.60723 5 2.1875 5.41973 2.1875 5.9375V16.875C2.1875 17.3928 2.60723 17.8125 3.125 17.8125H14.0625C14.5803 17.8125 15 17.3928 15 16.875V5.9375C15 5.41973 14.5803 5 14.0625 5H3.125ZM4.0625 15.9375V6.875H13.125V15.9375H4.0625Z" fill="white" fill-opacity="0.5"/>
</svg>
