<svg width="16" height="16" viewBox="0 0 16 16" fill="none" xmlns="http://www.w3.org/2000/svg">
<path d="M7 11C7 11.5523 7.44772 12 8 12C8.55229 12 9 11.5523 9 11C9 10.4477 8.55229 10 8 10C7.44772 10 7 10.4477 7 11Z" fill="white"/>
<path d="M8.48773 4.29804C8.00277 4.20157 7.50011 4.25108 7.04329 4.4403C6.58648 4.62952 6.19603 4.94995 5.92133 5.36107C5.64662 5.7722 5.5 6.25555 5.5 6.75C5.5 7.16421 5.83579 7.5 6.25 7.5C6.66421 7.5 7 7.16421 7 6.75C7 6.55222 7.05865 6.35888 7.16853 6.19443C7.27841 6.02998 7.43459 5.90181 7.61732 5.82612C7.80004 5.75043 8.00111 5.73063 8.19509 5.76921C8.38907 5.8078 8.56725 5.90304 8.70711 6.04289C8.84696 6.18275 8.9422 6.36093 8.98079 6.55491C9.01937 6.74889 8.99957 6.94996 8.92388 7.13268C8.84819 7.31541 8.72002 7.47159 8.55557 7.58147C8.39112 7.69135 8.19778 7.75 8 7.75C7.58579 7.75 7.25 8.08579 7.25 8.5C7.25 8.91421 7.58579 9.25 8 9.25C8.49445 9.25 8.9778 9.10338 9.38893 8.82867C9.80005 8.55397 10.1205 8.16352 10.3097 7.70671C10.4989 7.24989 10.5484 6.74723 10.452 6.26227C10.3555 5.77732 10.1174 5.33186 9.76777 4.98223C9.41814 4.6326 8.97268 4.3945 8.48773 4.29804Z" fill="white"/>
<path fill-rule="evenodd" clip-rule="evenodd" d="M1.25 8C1.25 4.27208 4.27208 1.25 8 1.25C11.7279 1.25 14.75 4.27208 14.75 8C14.75 11.7279 11.7279 14.75 8 14.75C4.27208 14.75 1.25 11.7279 1.25 8ZM8 2.75C5.10051 2.75 2.75 5.10051 2.75 8C2.75 10.8995 5.10051 13.25 8 13.25C10.8995 13.25 13.25 10.8995 13.25 8C13.25 5.10051 10.8995 2.75 8 2.75Z" fill="white"/>
</svg>
