<svg width="21" height="20" viewBox="0 0 21 20" fill="none" xmlns="http://www.w3.org/2000/svg">
<path d="M14.5908 1.3379C12.8773 0.628555 10.992 0.443346 9.17317 0.805702C7.35477 1.16798 5.68463 2.06133 4.37394 3.37277L4.37313 3.37358L3.10645 4.63654V2.84688C3.10645 2.22556 2.60277 1.72188 1.98145 1.72188C1.36012 1.72188 0.856445 2.22556 0.856445 2.84688L0.856445 7.34676C0.856445 7.34671 0.856445 7.3468 0.856445 7.34676C0.856445 7.499 0.886688 7.64431 0.941492 7.77675C0.994206 7.90442 1.07143 8.02436 1.17317 8.12939C1.18129 8.13778 1.18955 8.14604 1.19793 8.15418C1.4005 8.35082 1.67683 8.47188 1.98145 8.47188H6.48145C7.10277 8.47188 7.60645 7.9682 7.60645 7.34688C7.60645 6.72556 7.10277 6.22188 6.48145 6.22188H4.7031L5.96477 4.96393C6.96098 3.96689 8.23053 3.28773 9.6128 3.01233C10.9951 2.73694 12.428 2.8777 13.7302 3.41681C15.0325 3.95591 16.1456 4.86914 16.9288 6.04096C17.7119 7.21279 18.13 8.59056 18.13 10C18.13 11.4094 17.7119 12.7872 16.9288 13.959C16.1456 15.1309 15.0325 16.0441 13.7302 16.5832C12.428 17.1223 10.9951 17.2631 9.6128 16.9877C8.23053 16.7123 6.96098 16.0331 5.96477 15.0361C5.5256 14.5966 4.81329 14.5963 4.37378 15.0354C3.93426 15.4746 3.93397 16.1869 4.37313 16.6264C5.68394 17.9383 7.35439 18.8319 9.17317 19.1943C10.992 19.5567 12.8773 19.3715 14.5908 18.6621C16.3043 17.9528 17.769 16.7511 18.7995 15.2093C19.8299 13.6674 20.38 11.8545 20.38 10C20.38 8.14548 19.8299 6.33261 18.7995 4.79074C17.769 3.24886 16.3043 2.04725 14.5908 1.3379Z" fill="white"/>
</svg>
